<svg width="200" height="63" viewBox="0 0 200 63" fill="none" xmlns="http://www.w3.org/2000/svg">
<g clip-path="url(#clip0_125_2)">
<path d="M44.8113 11.5549C39.0506 5.77868 32.1304 2.84191 24.7792 3.04256C17.7133 3.20673 10.6292 6.49007 4.90482 12.2602L3.92749 13.2088L22.5756 31.8873L24.4696 33.7904L25.4165 32.8358L33.0652 25.1747L35.0016 23.2351L39.172 19.058L41.0902 17.1427L45.7583 12.467L44.8113 11.5549ZM32.5614 21.8914L30.5156 23.9404L24.4453 30.0207L19.0427 24.6153L7.73361 13.227C18.296 3.41346 31.7661 3.12769 41.934 12.4913L32.5614 21.8914Z" fill="#0A2540"/>
<path d="M23.5287 30.9384L4.54346 49.9546L6.44069 51.855L25.4259 32.8387L23.5287 30.9384Z" fill="#0A2540"/>
<path d="M41.0901 17.1488L39.1719 19.0641C38.8805 18.8452 38.5831 18.6324 38.2795 18.4256L39.7728 16.2003C40.2281 16.5043 40.6652 16.8204 41.0901 17.1488Z" fill="#0A2540"/>
<path d="M51.0397 37.4325C51.043 41.7821 49.9388 46.0606 47.8313 49.8636C45.7238 53.6666 42.6828 56.8683 38.9957 59.1661C35.3086 61.4638 31.0974 62.7817 26.7601 62.9951C22.4229 63.2084 18.103 62.3102 14.2089 60.3854C10.3148 58.4605 6.97515 55.5726 4.50579 51.9948C2.03642 48.4169 0.518924 44.2674 0.0967717 39.9384C-0.325381 35.6095 0.361765 31.2442 2.09324 27.2553C3.82471 23.2665 6.54328 19.7859 9.99192 17.1427L11.6248 19.2708C8.03963 22.0244 5.34991 25.7809 3.89565 30.0654C2.4414 34.3498 2.28789 38.97 3.45453 43.3418C4.62117 47.7136 7.05558 51.6409 10.4501 54.6272C13.8446 57.6136 18.0468 59.5249 22.5255 60.1196C27.0043 60.7144 31.5585 59.9658 35.6126 57.9686C39.6667 55.9714 43.0387 52.8152 45.3024 48.8988C47.566 44.9825 48.6197 40.4819 48.3303 35.9659C48.0409 31.4499 46.4213 27.1212 43.6763 23.5269L45.5763 21.6056C49.1217 26.1162 51.0464 31.6917 51.0397 37.4325Z" fill="#0A2540"/>
<path d="M35.0017 23.2412L33.0652 25.1808C32.786 25.0105 32.5067 24.8464 32.2154 24.6944C30.1572 23.6075 27.8647 23.0417 25.538 23.0466C23.2922 23.0432 21.0773 23.5702 19.073 24.5849C18.5851 24.837 18.1109 25.1151 17.6526 25.4179L16.1775 23.1804C16.481 22.9797 16.7845 22.7852 17.1123 22.6028C19.4491 21.2726 22.0668 20.5148 24.7517 20.3911C27.4366 20.2675 30.1126 20.7816 32.5614 21.8914C32.871 22.0251 33.1684 22.1711 33.4659 22.3292C33.9948 22.6034 34.5076 22.9079 35.0017 23.2412Z" fill="#0A2540"/>
<path d="M42.5713 37.4325C42.5722 41.2483 41.2964 44.9542 38.9478 47.9586C36.5991 50.9629 33.3131 53.0922 29.6145 54.0064C25.9159 54.9207 22.0182 54.5671 18.5437 53.0022C15.0693 51.4373 12.2186 48.7514 10.447 45.3733L12.7963 44.1208C13.7235 45.7975 14.976 47.2716 16.48 48.4567C17.9841 49.6418 19.7094 50.5138 21.5546 51.0216C23.3999 51.5295 25.3278 51.6628 27.2252 51.4139C29.1226 51.1649 30.9513 50.5387 32.6037 49.572C34.2561 48.6052 35.6989 47.3175 36.8475 45.7844C37.9961 44.2514 38.8272 42.5038 39.2921 40.6445C39.757 38.7852 39.8462 36.8515 39.5545 34.9572C39.2628 33.0628 38.5962 31.246 37.5937 29.6133L39.5058 27.6798C41.5012 30.5393 42.5713 33.9438 42.5713 37.4325Z" fill="#0A2540"/>
</g>
<path d="M78.3906 5.25V21.0781C78.3698 21.724 78.2552 22.3385 78.0469 22.9219C77.849 23.4948 77.5625 24 77.1875 24.4375C76.8021 24.875 76.3385 25.224 75.7969 25.4844C75.2552 25.7344 74.6406 25.8594 73.9531 25.8594C73.2865 25.8594 72.6823 25.75 72.1406 25.5312C71.6094 25.3125 71.151 25 70.7656 24.5938C70.3802 24.1979 70.0729 23.7292 69.8438 23.1875C69.625 22.6458 69.5 22.0573 69.4688 21.4219H66.5312C66.625 22.474 66.8646 23.4271 67.25 24.2812C67.6354 25.125 68.151 25.8438 68.7969 26.4375C69.4323 27.0417 70.1823 27.5052 71.0469 27.8281C71.9219 28.151 72.8906 28.3125 73.9531 28.3125C75.0052 28.3125 75.974 28.1354 76.8594 27.7812C77.7552 27.4167 78.5312 26.9115 79.1875 26.2656C79.8438 25.6302 80.3594 24.8698 80.7344 23.9844C81.1198 23.099 81.3229 22.1302 81.3438 21.0781V5.25H78.3906ZM98.0469 28H101.062V27.75C100.875 27.2812 100.729 26.7344 100.625 26.1094C100.521 25.474 100.469 24.875 100.469 24.3125V16.4531C100.469 15.5052 100.297 14.6771 99.9531 13.9688C99.6094 13.2604 99.1406 12.6667 98.5469 12.1875C97.9427 11.7188 97.2292 11.3698 96.4062 11.1406C95.5833 10.901 94.6927 10.7812 93.7344 10.7812C92.6823 10.7812 91.7396 10.9271 90.9062 11.2188C90.0833 11.5104 89.3854 11.8906 88.8125 12.3594C88.2292 12.8385 87.7812 13.375 87.4688 13.9688C87.1667 14.5625 87.0104 15.1667 87 15.7812H89.9062C89.9062 15.4271 89.9896 15.0885 90.1562 14.7656C90.3333 14.4323 90.5781 14.1458 90.8906 13.9062C91.2031 13.6667 91.5833 13.474 92.0312 13.3281C92.4896 13.1823 93.0052 13.1094 93.5781 13.1094C94.1927 13.1094 94.7448 13.1875 95.2344 13.3438C95.7344 13.5 96.1562 13.7188 96.5 14C96.8438 14.2917 97.1094 14.6406 97.2969 15.0469C97.4844 15.4531 97.5781 15.9115 97.5781 16.4219V17.75H94.4219C93.2448 17.75 92.1771 17.8646 91.2188 18.0938C90.2708 18.3229 89.4583 18.6667 88.7812 19.125C88.1042 19.5938 87.5781 20.1771 87.2031 20.875C86.8385 21.5729 86.6562 22.3854 86.6562 23.3125C86.6562 24.0208 86.7917 24.6823 87.0625 25.2969C87.3438 25.901 87.7396 26.4219 88.25 26.8594C88.75 27.3073 89.3594 27.6615 90.0781 27.9219C90.8073 28.1823 91.6198 28.3125 92.5156 28.3125C93.0677 28.3125 93.5885 28.2552 94.0781 28.1406C94.5677 28.026 95.0312 27.8698 95.4688 27.6719C95.8958 27.474 96.2865 27.2448 96.6406 26.9844C97.0052 26.724 97.3333 26.4479 97.625 26.1562C97.6562 26.5104 97.7031 26.8542 97.7656 27.1875C97.8385 27.5104 97.9323 27.7812 98.0469 28ZM92.9375 25.7969C92.375 25.7969 91.8802 25.724 91.4531 25.5781C91.026 25.4323 90.6719 25.2292 90.3906 24.9688C90.1094 24.7188 89.8958 24.4167 89.75 24.0625C89.6146 23.7083 89.5469 23.3229 89.5469 22.9062C89.5469 22.4688 89.625 22.0781 89.7812 21.7344C89.9479 21.3906 90.1875 21.0938 90.5 20.8438C90.9375 20.4896 91.526 20.2292 92.2656 20.0625C93.0156 19.8854 93.8906 19.7969 94.8906 19.7969H97.5781V23.2188C97.4115 23.5521 97.1823 23.875 96.8906 24.1875C96.599 24.4896 96.2552 24.7604 95.8594 25C95.4531 25.2396 95.0052 25.4323 94.5156 25.5781C94.026 25.724 93.5 25.7969 92.9375 25.7969ZM105.625 19.4062V19.7344C105.625 20.9427 105.776 22.0729 106.078 23.125C106.391 24.1667 106.839 25.0729 107.422 25.8438C108.005 26.6146 108.714 27.2188 109.547 27.6562C110.391 28.0938 111.349 28.3125 112.422 28.3125C112.974 28.3125 113.49 28.2604 113.969 28.1562C114.448 28.0521 114.891 27.901 115.297 27.7031C115.62 27.5573 115.917 27.3802 116.188 27.1719C116.469 26.9635 116.734 26.7292 116.984 26.4688V34.5H119.875V11.0938H117.219L117.094 12.7656C116.875 12.5156 116.641 12.2865 116.391 12.0781C116.141 11.8698 115.875 11.6875 115.594 11.5312C115.156 11.2812 114.672 11.0938 114.141 10.9688C113.62 10.8438 113.057 10.7812 112.453 10.7812C111.37 10.7812 110.401 10.9948 109.547 11.4219C108.703 11.849 107.99 12.4427 107.406 13.2031C106.823 13.9635 106.38 14.875 106.078 15.9375C105.776 16.9896 105.625 18.1458 105.625 19.4062ZM108.516 19.7344V19.4062C108.516 18.5833 108.604 17.7969 108.781 17.0469C108.969 16.2969 109.255 15.6302 109.641 15.0469C110.016 14.474 110.495 14.0156 111.078 13.6719C111.661 13.3281 112.354 13.1562 113.156 13.1562C113.604 13.1562 114.016 13.2135 114.391 13.3281C114.776 13.4323 115.13 13.5833 115.453 13.7812C115.766 13.9792 116.047 14.2135 116.297 14.4844C116.557 14.7448 116.786 15.0365 116.984 15.3594V23.7031C116.776 24.0469 116.542 24.3646 116.281 24.6562C116.021 24.9375 115.724 25.1771 115.391 25.375C115.078 25.5521 114.734 25.6927 114.359 25.7969C113.984 25.901 113.573 25.9531 113.125 25.9531C112.323 25.9531 111.63 25.7865 111.047 25.4531C110.474 25.1094 110 24.651 109.625 24.0781C109.25 23.5052 108.969 22.8438 108.781 22.0938C108.604 21.3438 108.516 20.5573 108.516 19.7344ZM136.516 28H139.141V11.0938H136.234V23.2188C136.078 23.5833 135.88 23.9219 135.641 24.2344C135.411 24.5365 135.141 24.7969 134.828 25.0156C134.453 25.2865 134.01 25.5 133.5 25.6562C132.99 25.8021 132.411 25.875 131.766 25.875C131.214 25.875 130.724 25.8021 130.297 25.6562C129.88 25.5104 129.526 25.2552 129.234 24.8906C128.943 24.5365 128.724 24.0573 128.578 23.4531C128.432 22.849 128.359 22.0885 128.359 21.1719V11.0938H125.469V21.1406C125.469 22.401 125.604 23.4844 125.875 24.3906C126.156 25.2865 126.552 26.026 127.062 26.6094C127.573 27.1927 128.188 27.625 128.906 27.9062C129.625 28.1771 130.427 28.3125 131.312 28.3125C132.417 28.3125 133.391 28.0833 134.234 27.625C135.078 27.1562 135.781 26.5052 136.344 25.6719L136.516 28ZM152.062 28.3125C153.708 28.3125 155.089 27.9844 156.203 27.3281C157.328 26.6615 158.172 25.901 158.734 25.0469L156.969 23.6719C156.438 24.3594 155.771 24.9115 154.969 25.3281C154.167 25.7448 153.25 25.9531 152.219 25.9531C151.438 25.9531 150.724 25.8073 150.078 25.5156C149.432 25.224 148.88 24.8229 148.422 24.3125C147.974 23.8333 147.62 23.2812 147.359 22.6562C147.109 22.0312 146.948 21.3073 146.875 20.4844V20.375H158.953V19.0781C158.953 17.901 158.802 16.8073 158.5 15.7969C158.208 14.7865 157.76 13.9062 157.156 13.1562C156.552 12.4167 155.792 11.8385 154.875 11.4219C153.969 10.9948 152.906 10.7812 151.688 10.7812C150.719 10.7812 149.771 10.9792 148.844 11.375C147.927 11.7708 147.109 12.3385 146.391 13.0781C145.661 13.8281 145.078 14.7448 144.641 15.8281C144.203 16.901 143.984 18.1198 143.984 19.4844V20.1406C143.984 21.3177 144.182 22.4062 144.578 23.4062C144.974 24.4062 145.526 25.2708 146.234 26C146.943 26.7292 147.792 27.2969 148.781 27.7031C149.781 28.1094 150.875 28.3125 152.062 28.3125ZM151.688 13.1562C152.427 13.1562 153.062 13.2917 153.594 13.5625C154.135 13.8333 154.583 14.1875 154.938 14.625C155.292 15.0625 155.568 15.5833 155.766 16.1875C155.964 16.7812 156.062 17.3385 156.062 17.8594V18H146.969C147.083 17.2188 147.281 16.5312 147.562 15.9375C147.854 15.3333 148.208 14.8229 148.625 14.4062C149.042 14 149.51 13.6927 150.031 13.4844C150.552 13.2656 151.104 13.1562 151.688 13.1562ZM177.844 30.3594V28H163.516V30.3594H177.844ZM70.8906 36.25H67.3125V59H70.125V49.9219L69.8906 40.75L73.75 52.6719H75.4062L79.6094 40.4219L79.375 49.9219V59H82.1875V36.25H78.5938L74.5938 47.625L70.8906 36.25ZM98.0469 59H101.062V58.75C100.875 58.2812 100.729 57.7344 100.625 57.1094C100.521 56.474 100.469 55.875 100.469 55.3125V47.4531C100.469 46.5052 100.297 45.6771 99.9531 44.9688C99.6094 44.2604 99.1406 43.6667 98.5469 43.1875C97.9427 42.7188 97.2292 42.3698 96.4062 42.1406C95.5833 41.901 94.6927 41.7812 93.7344 41.7812C92.6823 41.7812 91.7396 41.9271 90.9062 42.2188C90.0833 42.5104 89.3854 42.8906 88.8125 43.3594C88.2292 43.8385 87.7812 44.375 87.4688 44.9688C87.1667 45.5625 87.0104 46.1667 87 46.7812H89.9062C89.9062 46.4271 89.9896 46.0885 90.1562 45.7656C90.3333 45.4323 90.5781 45.1458 90.8906 44.9062C91.2031 44.6667 91.5833 44.474 92.0312 44.3281C92.4896 44.1823 93.0052 44.1094 93.5781 44.1094C94.1927 44.1094 94.7448 44.1875 95.2344 44.3438C95.7344 44.5 96.1562 44.7188 96.5 45C96.8438 45.2917 97.1094 45.6406 97.2969 46.0469C97.4844 46.4531 97.5781 46.9115 97.5781 47.4219V48.75H94.4219C93.2448 48.75 92.1771 48.8646 91.2188 49.0938C90.2708 49.3229 89.4583 49.6667 88.7812 50.125C88.1042 50.5938 87.5781 51.1771 87.2031 51.875C86.8385 52.5729 86.6562 53.3854 86.6562 54.3125C86.6562 55.0208 86.7917 55.6823 87.0625 56.2969C87.3438 56.901 87.7396 57.4219 88.25 57.8594C88.75 58.3073 89.3594 58.6615 90.0781 58.9219C90.8073 59.1823 91.6198 59.3125 92.5156 59.3125C93.0677 59.3125 93.5885 59.2552 94.0781 59.1406C94.5677 59.026 95.0312 58.8698 95.4688 58.6719C95.8958 58.474 96.2865 58.2448 96.6406 57.9844C97.0052 57.724 97.3333 57.4479 97.625 57.1562C97.6562 57.5104 97.7031 57.8542 97.7656 58.1875C97.8385 58.5104 97.9323 58.7812 98.0469 59ZM92.9375 56.7969C92.375 56.7969 91.8802 56.724 91.4531 56.5781C91.026 56.4323 90.6719 56.2292 90.3906 55.9688C90.1094 55.7188 89.8958 55.4167 89.75 55.0625C89.6146 54.7083 89.5469 54.3229 89.5469 53.9062C89.5469 53.4688 89.625 53.0781 89.7812 52.7344C89.9479 52.3906 90.1875 52.0938 90.5 51.8438C90.9375 51.4896 91.526 51.2292 92.2656 51.0625C93.0156 50.8854 93.8906 50.7969 94.8906 50.7969H97.5781V54.2188C97.4115 54.5521 97.1823 54.875 96.8906 55.1875C96.599 55.4896 96.2552 55.7604 95.8594 56C95.4531 56.2396 95.0052 56.4323 94.5156 56.5781C94.026 56.724 93.5 56.7969 92.9375 56.7969ZM117.234 41.7812C116.005 41.7812 114.906 42.0521 113.938 42.5938C112.979 43.125 112.156 43.8542 111.469 44.7812L111.453 44.3594L111.328 42.0938H108.578V59H111.484V48.1562C111.672 47.6354 111.906 47.1667 112.188 46.75C112.479 46.3229 112.818 45.9635 113.203 45.6719C113.63 45.3385 114.13 45.0885 114.703 44.9219C115.276 44.7448 115.917 44.6562 116.625 44.6562C117.177 44.6562 117.703 44.6875 118.203 44.75C118.714 44.8021 119.25 44.8906 119.812 45.0156L120.203 42.1875C119.911 42.0625 119.474 41.9635 118.891 41.8906C118.318 41.8177 117.766 41.7812 117.234 41.7812ZM132.219 38H129.312V42.0938H124.875V44.3281H129.312V53.5156C129.312 54.5573 129.448 55.4479 129.719 56.1875C130 56.9167 130.38 57.5104 130.859 57.9688C131.339 58.4375 131.901 58.7812 132.547 59C133.203 59.2083 133.906 59.3125 134.656 59.3125C135.104 59.3125 135.552 59.2917 136 59.25C136.458 59.2083 136.891 59.1458 137.297 59.0625C137.703 58.9896 138.078 58.901 138.422 58.7969C138.766 58.6823 139.057 58.5521 139.297 58.4062L138.891 56.3594C138.714 56.401 138.484 56.4531 138.203 56.5156C137.932 56.5677 137.641 56.6198 137.328 56.6719C137.005 56.724 136.677 56.7708 136.344 56.8125C136.01 56.8438 135.688 56.8594 135.375 56.8594C134.948 56.8594 134.542 56.8073 134.156 56.7031C133.781 56.599 133.448 56.4167 133.156 56.1562C132.865 55.9062 132.635 55.5677 132.469 55.1406C132.302 54.7135 132.219 54.1719 132.219 53.5156V44.3281H138.656V42.0938H132.219V38ZM145.047 42.0938V44.6094H150.797V56.5H145.047V59H159.203V56.5H153.688V42.0938H145.047ZM150.422 37.6562C150.422 38.125 150.562 38.5156 150.844 38.8281C151.135 39.1406 151.573 39.2969 152.156 39.2969C152.729 39.2969 153.161 39.1406 153.453 38.8281C153.745 38.5156 153.891 38.125 153.891 37.6562C153.891 37.3958 153.849 37.1562 153.766 36.9375C153.682 36.7188 153.557 36.5365 153.391 36.3906C153.255 36.2552 153.083 36.151 152.875 36.0781C152.667 35.9948 152.427 35.9531 152.156 35.9531C151.885 35.9531 151.641 35.9948 151.422 36.0781C151.214 36.151 151.042 36.2552 150.906 36.3906C150.74 36.5469 150.615 36.7344 150.531 36.9531C150.458 37.1719 150.422 37.4062 150.422 37.6562ZM163.812 59H166.703V46.875C166.901 46.5104 167.13 46.1771 167.391 45.875C167.661 45.5729 167.953 45.3073 168.266 45.0781C168.651 44.8177 169.073 44.6146 169.531 44.4688C169.99 44.3125 170.484 44.2344 171.016 44.2344C171.63 44.2344 172.172 44.3073 172.641 44.4531C173.12 44.599 173.526 44.8333 173.859 45.1562C174.182 45.4792 174.427 45.901 174.594 46.4219C174.76 46.9427 174.844 47.5781 174.844 48.3281V59H177.734V48.2656C177.734 47.1406 177.594 46.1719 177.312 45.3594C177.042 44.5365 176.651 43.8594 176.141 43.3281C175.63 42.7969 175.01 42.4062 174.281 42.1562C173.562 41.9062 172.76 41.7812 171.875 41.7812C171.219 41.7917 170.594 41.8906 170 42.0781C169.417 42.2552 168.875 42.5104 168.375 42.8438C168.042 43.0625 167.724 43.3229 167.422 43.625C167.13 43.9167 166.859 44.2396 166.609 44.5938L166.406 42.0938H163.812V59ZM194.266 54.5156C194.266 54.7865 194.214 55.0417 194.109 55.2812C194.005 55.5208 193.854 55.7396 193.656 55.9375C193.333 56.2604 192.885 56.5156 192.312 56.7031C191.74 56.8802 191.068 56.9688 190.297 56.9688C189.807 56.9688 189.312 56.9167 188.812 56.8125C188.312 56.7083 187.859 56.5312 187.453 56.2812C187.036 56.0312 186.688 55.7031 186.406 55.2969C186.135 54.8906 185.979 54.3906 185.938 53.7969H183.047C183.047 54.5156 183.208 55.2083 183.531 55.875C183.865 56.5417 184.344 57.125 184.969 57.625C185.583 58.1354 186.339 58.5469 187.234 58.8594C188.13 59.1615 189.151 59.3125 190.297 59.3125C191.297 59.3125 192.219 59.1927 193.062 58.9531C193.906 58.7135 194.63 58.375 195.234 57.9375C195.839 57.5 196.307 56.974 196.641 56.3594C196.984 55.7448 197.156 55.0625 197.156 54.3125C197.156 53.6146 197.005 53 196.703 52.4688C196.411 51.9375 195.984 51.4688 195.422 51.0625C194.859 50.6667 194.167 50.3281 193.344 50.0469C192.521 49.7552 191.589 49.5 190.547 49.2812C189.755 49.125 189.099 48.9635 188.578 48.7969C188.068 48.6302 187.661 48.4427 187.359 48.2344C187.047 48.026 186.828 47.7917 186.703 47.5312C186.578 47.2708 186.516 46.974 186.516 46.6406C186.516 46.3177 186.594 46.0052 186.75 45.7031C186.906 45.401 187.141 45.1354 187.453 44.9062C187.755 44.6771 188.135 44.4948 188.594 44.3594C189.062 44.224 189.604 44.1562 190.219 44.1562C190.812 44.1562 191.344 44.2396 191.812 44.4062C192.292 44.5729 192.698 44.7917 193.031 45.0625C193.365 45.3333 193.625 45.6458 193.812 46C194 46.3438 194.094 46.6979 194.094 47.0625H196.984C196.984 46.3229 196.823 45.6354 196.5 45C196.188 44.3542 195.74 43.7917 195.156 43.3125C194.573 42.8333 193.865 42.4583 193.031 42.1875C192.198 41.9167 191.26 41.7812 190.219 41.7812C189.25 41.7812 188.359 41.9115 187.547 42.1719C186.745 42.4323 186.052 42.7865 185.469 43.2344C184.885 43.6823 184.432 44.2083 184.109 44.8125C183.786 45.4062 183.625 46.0469 183.625 46.7344C183.625 47.4323 183.781 48.0469 184.094 48.5781C184.406 49.099 184.849 49.5521 185.422 49.9375C185.984 50.3333 186.661 50.6719 187.453 50.9531C188.255 51.2344 189.141 51.474 190.109 51.6719C190.901 51.8281 191.562 52.0052 192.094 52.2031C192.625 52.3906 193.052 52.599 193.375 52.8281C193.698 53.0573 193.927 53.3125 194.062 53.5938C194.198 53.8646 194.266 54.1719 194.266 54.5156Z" fill="#0A2540"/>
<defs>
<clipPath id="clip0_125_2">
<rect width="51.0638" height="60" fill="white" transform="translate(0 3)"/>
</clipPath>
</defs>
</svg>
