<svg width="105" height="102" viewBox="0 0 105 102" fill="none" xmlns="http://www.w3.org/2000/svg">
<path d="M52.2885 0C80.8767 0 104.267 22.76 104.267 50.5778C104.267 78.3956 80.8767 101.156 52.2885 101.156C23.7004 101.156 0.310059 78.3956 0.310059 50.5778C0.310059 22.76 23.7004 0 52.2885 0ZM41.8928 67.3317C42.5426 70.1767 42.5426 72.7056 41.8928 74.9183L41.568 75.8667C41.568 76.1828 41.2431 76.4989 41.2431 76.4989C40.5934 77.7633 39.9436 78.7117 38.9691 79.9761C36.0453 83.1372 31.822 84.4017 29.8728 83.4533C27.9236 82.505 28.8982 77.7633 32.4717 74.2861C36.3701 70.4928 41.568 67.9639 41.568 67.9639L41.8928 67.3317ZM84.7751 21.4956C82.501 12.6444 67.2323 9.48333 52.6134 14.5411C44.1669 17.7022 34.7458 22.4439 27.9236 28.45C19.802 35.7206 18.8274 42.0428 19.1523 44.5717C21.1014 53.7389 34.0961 60.0611 39.6188 64.4867C37.9945 65.1189 26.2993 70.8089 23.7004 76.815C20.7766 83.1372 24.0252 87.5628 26.2993 87.8789C33.1215 89.7756 40.2685 86.2983 43.842 80.9245C47.4156 75.5506 47.0907 68.9122 45.4664 65.435C47.9935 64.6756 50.6798 64.5667 53.2631 65.1189C62.3594 66.0672 64.3086 71.7572 63.6588 73.97C63.0091 76.1828 61.3848 77.4472 60.735 78.0795C60.0853 78.3956 59.7604 78.7117 60.0853 78.7117C60.0853 79.0278 60.4102 79.0278 61.0599 79.0278C61.7096 79.0278 65.9329 77.1311 65.9329 72.7056C66.2578 67.3317 60.735 61.3256 51.3139 61.3256C47.4156 61.3256 44.8166 61.6417 43.1923 62.2739C43.1923 61.9578 42.8674 61.9578 42.8674 61.9578C37.0199 55.9517 26.2993 51.5261 26.6242 43.3072C26.6242 40.4622 27.9236 32.5594 47.4156 23.0761C63.334 15.1733 76.3286 17.3861 78.6026 22.1278C81.8513 28.7661 71.7805 41.4106 55.2123 43.3072C48.715 43.9394 45.4664 41.7267 44.8166 40.7783C43.842 39.83 43.842 39.83 43.5172 39.83C42.8674 40.1461 43.1923 40.7783 43.5172 41.4106C44.1669 42.675 46.1161 44.8878 49.6896 46.1522C52.6134 47.1006 60.0853 47.7328 69.1815 44.2556C79.2524 40.4622 87.0491 30.0306 84.7751 21.1794V21.4956Z" fill="#80E9FF"/>
</svg>
