<svg width="131" height="102" viewBox="0 0 131 102" fill="none" xmlns="http://www.w3.org/2000/svg">
<path fill-rule="evenodd" clip-rule="evenodd" d="M27.478 0C20.0222 0 14.5092 6.34372 14.7596 13.2165C14.9936 19.8301 14.6888 28.3854 12.4738 35.364C10.2425 42.3585 6.48742 46.7922 0.348633 47.3636V53.792C6.48742 54.3581 10.248 58.7918 12.4684 65.7916C14.6888 72.7702 14.9936 81.3255 14.7541 87.9338C14.5092 94.8119 20.0222 101.156 27.478 101.156H103.843C111.299 101.156 116.812 94.8119 116.561 87.9338C116.327 81.3255 116.632 72.7702 118.847 65.7916C121.073 58.7918 124.822 54.3634 130.961 53.792V47.3636C124.822 46.7922 121.073 42.3585 118.847 35.364C116.632 28.3801 116.327 19.8248 116.561 13.2165C116.812 6.33843 111.293 0 103.843 0H27.478ZM88.8931 62.2679C88.8931 71.7385 81.6278 77.479 69.5733 77.479H49.0508C48.4634 77.479 47.9 77.2522 47.4846 76.8483C47.0692 76.4445 46.8358 75.8968 46.8358 75.3257V25.8246C46.8373 25.2544 47.0713 24.708 47.4865 24.3053C47.9017 23.9027 48.4643 23.6765 49.0508 23.6765H69.459C79.5107 23.6765 86.1121 28.9673 86.1121 37.0994C86.1121 42.8029 81.6713 47.9086 76.0169 48.808V49.1043C83.7176 49.9244 88.8985 55.1094 88.8985 62.2679H88.8931ZM67.342 30.4964H55.6413V46.57H65.4971C73.1162 46.57 77.3175 43.5859 77.3175 38.2528C77.3175 33.2582 73.7039 30.4964 67.342 30.4964ZM55.6413 52.9454V70.6539H67.7774C75.7066 70.6539 79.9135 67.5587 79.9135 61.7441C79.9135 55.9242 75.5924 52.9454 67.2658 52.9454H55.6413Z" fill="#80E9FF"/>
</svg>
