<svg width="92" height="102" viewBox="0 0 92 102" fill="none" xmlns="http://www.w3.org/2000/svg">
<path d="M0 0L8.23247 90.7725L45.7526 101.156L83.123 90.7725L91.5177 0H0ZM74.217 21.532L73.6183 27.2707L73.4062 29.6415H29.5745L30.5974 41.0944H72.3959L71.9842 44.0489L69.3399 73.4958L69.1278 75.4655L45.8025 81.739V81.7755H45.6528L45.6154 81.7877V81.7755H45.6029L22.078 75.4533L20.656 57.8727H32.0193L32.8301 66.7724L45.6029 70.1402H45.6528L58.3757 66.7846L59.7977 52.365H45.6154V52.3529H20.0573L17.2134 21.532L17.0013 18.5776H74.4166L74.217 21.532Z" fill="#80E9FF"/>
</svg>
