<svg width="104" height="102" viewBox="0 0 104 102" fill="none" xmlns="http://www.w3.org/2000/svg">
<path fill-rule="evenodd" clip-rule="evenodd" d="M0.0429688 0H104V101.156H0.0429688V0ZM79.5137 84.8021C74.6927 84.8021 71.9682 82.3575 69.8761 79.0278L61.9363 83.5166C64.8038 89.0295 70.6644 93.2359 79.739 93.2359C89.0171 93.2359 95.9259 88.5491 95.9259 79.9888C95.9259 72.0523 91.2392 68.5245 82.94 65.0557L80.497 64.0399C76.3041 62.2697 74.4891 61.119 74.4891 58.2656C74.4891 55.9601 76.3084 54.1941 79.1672 54.1941C81.9697 54.1941 83.776 55.3447 85.4523 58.2656L93.0585 53.5155C89.8401 48.0067 85.3786 45.9035 79.1672 45.9035C70.4435 45.9035 64.8601 51.3322 64.8601 58.4637C64.8601 66.1979 69.5382 69.8606 76.5899 72.7814L79.0329 73.8014C83.4901 75.6981 86.1453 76.8529 86.1453 80.111C86.1453 82.8338 83.5594 84.8021 79.5137 84.8021ZM41.6561 84.7389C38.2991 84.7389 36.9 82.505 35.3667 79.8497L27.414 84.5365C29.7183 89.2824 34.2491 93.2191 42.0676 93.2191C50.7263 93.2191 56.6562 88.7387 56.6562 78.8971V46.443H46.8886V78.7707C46.8886 83.5208 44.8614 84.7389 41.6517 84.7389H41.6561Z" fill="#80E9FF"/>
</svg>
