<?xml version="1.0" encoding="UTF-8" standalone="no"?><!DOCTYPE svg PUBLIC "-//W3C//DTD SVG 1.1//EN" "http://www.w3.org/Graphics/SVG/1.1/DTD/svg11.dtd"><svg width="100%" height="100%" viewBox="0 0 48 48" version="1.1" xmlns="http://www.w3.org/2000/svg" xmlns:xlink="http://www.w3.org/1999/xlink" xml:space="preserve" xmlns:serif="http://www.serif.com/" style="fill-rule:evenodd;clip-rule:evenodd;stroke-linejoin:round;stroke-miterlimit:2;"><path d="M30.513,46.006c-0.519,-0 -0.972,-0.184 -1.361,-0.551c-0.389,-0.366 -0.584,-0.794 -0.584,-1.283c0,-0.53 0.195,-0.968 0.584,-1.314c0.389,-0.347 0.842,-0.52 1.361,-0.52c2.548,-0 4.698,-0.489 6.447,-1.467c1.75,-0.978 2.625,-2.119 2.625,-3.423c-0,-0.937 -0.638,-1.854 -1.912,-2.751c-1.274,-0.896 -2.992,-1.589 -5.152,-2.078l3.046,-2.873c2.722,0.774 4.72,1.844 5.994,3.209c1.275,1.365 1.912,2.863 1.912,4.493c-0,2.73 -1.318,4.839 -3.953,6.326c-2.635,1.488 -5.638,2.232 -9.007,2.232Zm-20.737,-17.972c-2.765,-0.57 -4.752,-1.467 -5.962,-2.689c-1.209,-1.223 -1.814,-2.486 -1.814,-3.79c0,-1.426 0.562,-2.71 1.685,-3.851c1.123,-1.141 3.715,-2.404 7.776,-3.79c2.851,-0.978 4.687,-1.773 5.508,-2.384c0.821,-0.611 1.231,-1.324 1.231,-2.139c0,-1.019 -0.475,-1.895 -1.425,-2.629c-0.951,-0.733 -2.42,-1.1 -4.407,-1.1c-1.166,0 -2.16,0.143 -2.981,0.428c-0.82,0.285 -1.555,0.733 -2.203,1.345c-0.346,0.326 -0.788,0.519 -1.328,0.58c-0.54,0.062 -1.026,-0.071 -1.458,-0.397c-0.476,-0.326 -0.724,-0.733 -0.746,-1.222c-0.021,-0.489 0.141,-0.917 0.486,-1.284c0.735,-0.897 1.836,-1.64 3.305,-2.231c1.469,-0.591 3.111,-0.887 4.925,-0.887c2.938,0 5.292,0.663 7.064,1.987c1.771,1.324 2.656,3.128 2.656,5.41c0,1.671 -0.615,3.087 -1.846,4.248c-1.232,1.161 -3.64,2.374 -7.226,3.637c-2.894,1.019 -4.806,1.824 -5.735,2.415c-0.929,0.59 -1.393,1.212 -1.393,1.864c0,0.652 0.583,1.273 1.75,1.864c1.166,0.591 2.916,1.152 5.249,1.681l-3.111,2.934Zm32.142,-9.413l-8.295,-7.824l2.916,-2.751c0.778,-0.734 1.642,-1.1 2.592,-1.1c0.95,-0 1.815,0.366 2.592,1.1l3.111,2.934c0.777,0.734 1.166,1.549 1.166,2.445c0,0.897 -0.389,1.712 -1.166,2.445l-2.916,2.751Zm-33.438,23.717l2.722,-0l22.356,-21.089l-2.721,-2.567l-22.357,21.089l0,2.567Zm-3.888,3.668l0,-7.825l26.245,-24.756l8.294,7.824l-26.244,24.757l-8.295,-0Zm26.245,-27.324l2.721,2.567l-2.721,-2.567Z" style="fill:#7a73ff;fill-rule:nonzero;"/></svg>